<svg width="104" height="104" viewBox="0 0 104 104" fill="none" xmlns="http://www.w3.org/2000/svg">
<path d="M27.576 104H6.12C4.296 104 2.952 103.616 2.088 102.848C1.32 101.984 0.936001 100.64 0.936001 98.816V5.504C0.936001 3.68 1.32 2.384 2.088 1.616C2.952 0.751996 4.296 0.319996 6.12 0.319996H29.304C30.84 0.319996 32.088 0.655994 33.048 1.32799C34.104 1.99999 35.064 3.10399 35.928 4.63999L48.888 28.112C49.368 28.976 49.752 29.6 50.04 29.984C50.424 30.368 50.904 30.56 51.48 30.56H52.776C53.352 30.56 53.784 30.368 54.072 29.984C54.456 29.6 54.888 28.976 55.368 28.112L68.184 4.63999C69.048 3.10399 69.96 1.99999 70.92 1.32799C71.976 0.655994 73.272 0.319996 74.808 0.319996H98.136C99.96 0.319996 101.256 0.751996 102.024 1.616C102.888 2.384 103.32 3.68 103.32 5.504V98.816C103.32 100.64 102.888 101.984 102.024 102.848C101.256 103.616 99.96 104 98.136 104H75.96C74.136 104 72.792 103.616 71.928 102.848C71.16 101.984 70.776 100.64 70.776 98.816V48.128L62.28 63.824C61.416 65.456 60.36 66.656 59.112 67.424C57.96 68.096 56.472 68.432 54.648 68.432H48.888C47.064 68.432 45.528 68.096 44.28 67.424C43.128 66.656 42.12 65.456 41.256 63.824L32.76 48.128V98.816C32.76 100.64 32.328 101.984 31.464 102.848C30.696 103.616 29.4 104 27.576 104Z" fill="white"/>
</svg>
